<svg width="24" height="24" viewBox="0 0 24 24" fill="none" xmlns="http://www.w3.org/2000/svg">
<path d="M0 0H24V24H0V0Z" fill="#C7D9B7"/>
<path d="M12 21C10.75 21 9.57917 20.7625 8.4875 20.2875C7.39583 19.8125 6.44583 19.1708 5.6375 18.3625C4.82917 17.5542 4.1875 16.6042 3.7125 15.5125C3.2375 14.4208 3 13.25 3 12H5C5 13.95 5.67917 15.6042 7.0375 16.9625C8.39583 18.3208 10.05 19 12 19C13.95 19 15.6042 18.3208 16.9625 16.9625C18.3208 15.6042 19 13.95 19 12C19 10.05 18.3208 8.39583 16.9625 7.0375C15.6042 5.67917 13.95 5 12 5H11.85L13.4 6.55L12 8L8 4L12 0L13.4 1.45L11.85 3H12C13.25 3 14.4208 3.2375 15.5125 3.7125C16.6042 4.1875 17.5542 4.82917 18.3625 5.6375C19.1708 6.44583 19.8125 7.39583 20.2875 8.4875C20.7625 9.57917 21 10.75 21 12C21 13.25 20.7625 14.4208 20.2875 15.5125C19.8125 16.6042 19.1708 17.5542 18.3625 18.3625C17.5542 19.1708 16.6042 19.8125 15.5125 20.2875C14.4208 20.7625 13.25 21 12 21Z" fill="#CC7178"/>
</svg>
