<svg width="24" height="24" viewBox="0 0 24 24" fill="none" xmlns="http://www.w3.org/2000/svg">
<path d="M0 0H24V24H0V0Z" fill="#C7D9B7"/>
<path d="M18 22H7V9L14 2L15.25 3.25C15.3667 3.36667 15.4625 3.525 15.5375 3.725C15.6125 3.925 15.65 4.11667 15.65 4.3V4.65L14.55 9H21C21.5333 9 22 9.2 22.4 9.6C22.8 10 23 10.4667 23 11V13C23 13.1167 22.9833 13.2417 22.95 13.375C22.9167 13.5083 22.8833 13.6333 22.85 13.75L19.85 20.8C19.7 21.1333 19.45 21.4167 19.1 21.65C18.75 21.8833 18.3833 22 18 22ZM9 20H18L21 13V11H12L13.35 5.5L9 9.85V20ZM7 9V11H4V20H7V22H2V9H7Z" fill="#CC7178"/>
</svg>
