<svg width="24" height="24" viewBox="0 0 24 24" fill="none" xmlns="http://www.w3.org/2000/svg">
<path d="M0 0H24V24H0V0Z" fill="#C7D9B7"/>
<path d="M5 4H16V17L9 24L7.75 22.75C7.63333 22.6333 7.5375 22.475 7.4625 22.275C7.3875 22.075 7.35 21.8833 7.35 21.7V21.35L8.45 17H2C1.46667 17 1 16.8 0.6 16.4C0.2 16 0 15.5333 0 15V13C0 12.8833 0.0166667 12.7583 0.05 12.625C0.0833333 12.4917 0.116667 12.3667 0.15 12.25L3.15 5.2C3.3 4.86667 3.55 4.58333 3.9 4.35C4.25 4.11667 4.61667 4 5 4ZM14 6H5L2 13V15H11L9.65 20.5L14 16.15V6ZM16 17V15H19V6H16V4H21V17H16Z" fill="#CC7178"/>
</svg>
